Coordinates
version=1
nRows=5
nColumns=107
inDegrees=yes

Units are S.I. units (second, meters, Newtons, ...)
If the header above contains a line with 'inDegrees', this indicates whether rotational values are in degrees (yes) or radians (no).

endheader
time	sternoclavicular_r2	sternoclavicular_r3	unrotscap_r3	unrotscap_r2	acromioclavicular_r2	acromioclavicular_r3	acromioclavicular_r1	unrothum_r1	unrothum_r3	unrothum_r2	elv_angle	shoulder_elv	shoulder1_r2	shoulder_rot	elbow_flexion	pro_sup	deviation	flexion	proximal_distal_r1	proximal_distal_r3	cmc_flexion	cmc_abduction	mp_flexion	ip_flexion	mcp2_flexion	mcp2_abduction	pm2_flexion	md2_flexion	mcp3_flexion	mcp3_abduction	pm3_flexion	md3_flexion	mcp4_flexion	mcp4_abduction	pm4_flexion	md4_flexion	mcp5_flexion	mcp5_abduction	pm5_flexion	md5_flexion	bicpt_tx	bicpt_ty	bicpt_tz	bicpt2_tx	bicpt2_ty	bicpt2_tz	ptpt_tx	ptpt_ty	ptpt_tz	FCUpt_tx	FCUpt_ty	FCUpt_tz	EDCpt_tx	EDCpt_ty	EDCpt_tz	APLpt_tx	APLpt_ty	APLpt_tz	FPLpt_tx	FPLpt_ty	FPLpt_tz	FPLpt2_tx	FPLpt2_ty	FPLpt2_tz	PEC1pt2_tx	PEC1pt2_ty	PEC1pt2_tz	PEC1pt3_tx	PEC1pt3_ty	PEC1pt3_tz	PEC2pt2_tx	PEC2pt2_ty	PEC2pt2_tz	PEC2pt3_tx	PEC2pt3_ty	PEC2pt3_tz	PEC3pt2_tx	PEC3pt2_ty	PEC3pt2_tz	PEC3pt3_tx	PEC3pt3_ty	PEC3pt3_tz	DELT2pt2a_tx	DELT2pt2a_ty	DELT2pt2a_tz	DELT2pt2_tx	DELT2pt2_ty	DELT2pt2_tz	LAT1pt2_tx	LAT1pt2_ty	LAT1pt2_tz	LAT1pt3_tx	LAT1pt3_ty	LAT1pt3_tz	LAT2pt2_tx	LAT2pt2_ty	LAT2pt2_tz	LAT2pt3_tx	LAT2pt3_ty	LAT2pt3_tz	LAT3pt2_tx	LAT3pt2_ty	LAT3pt2_tz	LAT3pt3_tx	LAT3pt3_ty	LAT3pt3_tz
      0.00000000	     -0.30749683	      0.13024114	     -0.13024114	      0.30749683	     -0.06226185	      0.50317839	      0.22617522	     -0.22617522	     -0.50317839	      0.06226185	    101.82789804	     72.80260708	     -1.77723209	    -41.30366825	     33.19440112	     87.54248995	      0.38004713	     -0.44292222	      0.39755613	     -0.22146111	     42.18596275	    -20.68128196	     11.33198767	      7.58859518	     86.72508241	     13.03486381	     77.60190566	     86.44203883	     93.89918534	      0.40625002	     77.62901519	     49.76159264	     84.25318589	    -13.40966299	     97.29386033	     37.64833951	     71.83974275	    -14.32608961	    104.03708234	      5.33886612	      0.00099797	     -0.03140459	     -0.00491282	      0.01407774	     -0.01921742	     -0.00081022	      0.00108160	     -0.06908258	     -0.00710202	      0.01291556	     -0.18218516	      0.00012718	     -0.01050507	      0.00366303	     -0.00080739	      0.00028890	      0.00011556	      0.00057780	      0.00036979	      0.00110938	      0.00062402	     -0.00000701	     -0.00006596	     -0.00007915	      0.00238631	      0.00837231	      0.00582421	     -0.00780606	      0.01884780	     -0.01787710	      0.00238631	      0.00837231	      0.00582421	      0.00052580	      0.01747264	     -0.00918123	      0.00381851	      0.00465573	      0.01564261	      0.00000000	      0.00708417	      0.00000000	     -0.00683536	     -0.03158827	     -0.00583703	      0.02303452	     -0.00115850	     -0.01369191	     -0.00084936	      0.01423697	     -0.00582421	      0.00234586	      0.02054653	     -0.01698729	     -0.00570288	      0.01233601	     -0.00521752	     -0.01189110	      0.02604718	     -0.02916151	     -0.02232615	      0.01379206	     -0.00699715	     -0.01480321	      0.03009177	     -0.03644178
      0.03333333	     -0.30747508	      0.13023193	     -0.13023193	      0.30747508	     -0.06225745	      0.50314280	      0.22615923	     -0.22615923	     -0.50314280	      0.06225745	    101.87067114	     72.79745739	     -1.77797862	    -41.28327957	     33.21178047	     87.54381242	      0.38003526	     -0.44294659	      0.39754701	     -0.22147330	     42.18478532	    -20.68110177	     11.33165182	      7.58853361	     86.72464353	     13.03539659	     77.60146582	     86.44209984	     93.89358423	      0.40640972	     77.62955109	     49.76227243	     84.25747703	    -13.40967631	     97.29374793	     37.64816549	     71.84314063	    -14.32564696	    104.03895905	      5.33903771	      0.00099854	     -0.03140658	     -0.00491314	      0.01407760	     -0.01922214	     -0.00080999	      0.00108150	     -0.06908264	     -0.00710212	      0.01291572	     -0.18218512	      0.00012722	     -0.01050523	      0.00366310	     -0.00080744	      0.00028889	      0.00011555	      0.00057777	      0.00036978	      0.00110933	      0.00062400	     -0.00000701	     -0.00006598	     -0.00007917	      0.00238614	      0.00837171	      0.00582380	     -0.00780551	      0.01884647	     -0.01787584	      0.00238614	      0.00837171	      0.00582380	      0.00052576	      0.01747140	     -0.00918058	      0.00381830	      0.00465540	      0.01564209	      0.00000000	      0.00708316	      0.00000000	     -0.00683488	     -0.03158603	     -0.00583619	      0.02302845	     -0.00115775	     -0.01367973	     -0.00084930	      0.01423596	     -0.00582380	      0.00234570	      0.02054508	     -0.01698609	     -0.00570247	      0.01233514	     -0.00521716	     -0.01189026	      0.02604533	     -0.02915945	     -0.02232457	      0.01379109	     -0.00699665	     -0.01480216	      0.03008964	     -0.03643920
      0.06666667	     -0.30837374	      0.13061256	     -0.13061256	      0.30837374	     -0.06243941	      0.50461334	      0.22682022	     -0.22682022	     -0.50461334	      0.06243941	    101.77724151	     73.01022339	     -1.77634797	    -40.59407928	     32.95477617	     87.18584143	      0.36988515	     -0.46842214	      0.39000225	     -0.23421107	     41.97951296	    -21.21224966	     11.19921320	      7.97186913	     86.79824225	     13.20331169	     77.03726981	     87.19646136	     92.16237890	      0.40913410	     79.20300866	     53.78384751	     86.92753568	    -13.47353257	     95.19416796	     38.59111237	     74.59849634	    -14.30572398	    106.31647687	      5.47821883	      0.00099004	     -0.03137712	     -0.00490840	      0.01411572	     -0.01915233	     -0.00087198	      0.00110795	     -0.06906554	     -0.00707329	      0.01287444	     -0.18219738	      0.00011699	     -0.01046228	      0.00364331	     -0.00079568	      0.00029551	      0.00011821	      0.00059103	      0.00037826	      0.00113477	      0.00063831	     -0.00000741	     -0.00007044	     -0.00008453	      0.00239311	      0.00839618	      0.00584082	     -0.00782833	      0.01890155	     -0.01792808	      0.00239311	      0.00839618	      0.00584082	      0.00052730	      0.01752247	     -0.00920741	      0.00382661	      0.00466901	      0.01566347	      0.00000000	      0.00712488	      0.00000000	     -0.00685485	     -0.03167835	     -0.00587086	      0.02282378	     -0.00113253	     -0.01326748	     -0.00085179	      0.01427757	     -0.00584082	      0.00235255	      0.02060512	     -0.01703573	     -0.00571914	      0.01237119	     -0.00523240	     -0.01192501	      0.02612146	     -0.02924468	     -0.02238982	      0.01383139	     -0.00701710	     -0.01484542	      0.03017758	     -0.03654570
      0.10000000	     -0.30840842	      0.13062725	     -0.13062725	      0.30840842	     -0.06244643	      0.50467009	      0.22684573	     -0.22684573	     -0.50467009	      0.06244643	    101.60930039	     73.01843399	     -1.77341684	    -40.08152866	     33.15361546	     86.61560884	      0.37117109	     -0.44713699	      0.39096737	     -0.22356849	     41.73891227	    -21.17288588	     10.84897439	      7.85494058	     86.37355186	     13.21525903	     77.49059174	     86.50439003	     90.89590928	      0.36208377	     80.32744364	     54.61530865	     86.11251691	    -13.49428033	     95.23858561	     38.65960913	     76.03528685	    -14.26204964	    112.82077040	      5.72531666	      0.00099662	     -0.03139991	     -0.00491207	      0.01417584	     -0.01920634	     -0.00097035	      0.00115008	     -0.06903829	     -0.00702735	      0.01280878	     -0.18221683	      0.00010090	     -0.01039385	      0.00361185	     -0.00077709	      0.00029005	      0.00011602	      0.00058010	      0.00037126	      0.00111379	      0.00062651	     -0.00000785	     -0.00007562	     -0.00009074	      0.00239338	      0.00839713	      0.00584148	     -0.00782921	      0.01890368	     -0.01793010	      0.00239338	      0.00839713	      0.00584148	      0.00052736	      0.01752444	     -0.00920844	      0.00382693	      0.00466954	      0.01566429	      0.00000000	      0.00712649	      0.00000000	     -0.00685563	     -0.03168191	     -0.00587220	      0.02266742	     -0.00111383	     -0.01296346	     -0.00085188	      0.01427917	     -0.00584148	      0.00235282	      0.02060744	     -0.01703765	     -0.00571978	      0.01237258	     -0.00523299	     -0.01192635	      0.02612440	     -0.02924796	     -0.02239234	      0.01383295	     -0.00701789	     -0.01484709	      0.03018098	     -0.03654981
      0.13333333	     -0.31630324	      0.13397112	     -0.13397112	      0.31630324	     -0.06404497	      0.51758894	      0.23265266	     -0.23265266	     -0.51758894	      0.06404497	    100.39472759	     74.88760373	     -1.75221855	    -33.87418812	     31.95630155	     85.09793688	      0.34803878	     -0.51775583	      0.37319164	     -0.25887791	     42.36592121	    -23.23236923	     10.67238192	      7.43134589	     89.39827207	     13.36022676	     75.78854898	     88.80300188	     94.53177655	      1.17292573	     76.94085093	     55.19493708	     93.05006891	    -13.71263329	     87.01406144	     37.90696333	    106.10402013	    -14.45739344	     57.93162920	      5.02352855	      0.00095702	     -0.03126268	     -0.00488996	      0.01433223	     -0.01888109	     -0.00122995	      0.00126222	     -0.06896578	     -0.00690510	      0.01263450	     -0.18226817	      0.00005925	     -0.01021173	      0.00352864	     -0.00072847	      0.00030524	      0.00012210	      0.00061049	      0.00039071	      0.00117213	      0.00065932	     -0.00000665	     -0.00006200	     -0.00007440	      0.00245465	      0.00861208	      0.00599101	     -0.00802962	      0.01938758	     -0.01838908	      0.00245465	      0.00861208	      0.00599101	      0.00054086	      0.01797304	     -0.00944417	      0.00389921	      0.00478907	      0.01584728	      0.00000000	      0.00749840	      0.00000000	     -0.00703112	     -0.03249293	     -0.00618116	      0.02049515	     -0.00089137	     -0.00947289	     -0.00087369	      0.01464470	     -0.00599101	      0.00241305	      0.02113496	     -0.01747379	     -0.00586620	      0.01268930	     -0.00536695	     -0.01223165	      0.02679314	     -0.02999667	     -0.02296555	      0.01418705	     -0.00719754	     -0.01522716	      0.03095357	     -0.03748544
